<svg xmlns="http://www.w3.org/2000/svg" width="185.001" height="85.385" viewBox="0 0 185.001 85.385">
  <g id="logo_bci_negro" transform="translate(0 0)">
    <path id="Trazado_1588" data-name="Trazado 1588" d="M60.824,10.478a6.16,6.16,0,0,1,5.943-6.256,6.083,6.083,0,0,1,5.943,6.256,5.951,5.951,0,1,1-11.885,0Z" transform="translate(112.291 7.795)"/>
    <path id="Trazado_1589" data-name="Trazado 1589" d="M77.982,26.358c-3.126-3.291-6.1-4.753-9.725-4.753-6.946,0-12.425,6.053-12.387,13.772V35.5c0,7.678,5.634,13.934,12.541,13.934,3.28,0,6.1-1.259,8.914-4.022l7.718,7.841c-4.785,4.956-10.226,7.394-16.747,7.394-12.85,0-23.308-11.253-23.308-25.025V35.5c0-13.812,10.458-25.025,23.385-25.025,8.219,0,13.429,3.859,17.056,7.638Z" transform="translate(83.056 19.337)"/>
    <path id="Trazado_1590" data-name="Trazado 1590" d="M69.575,23.538A17.219,17.219,0,0,1,65.061,35.4c4.438,3.25,6.406,8.775,6.367,14.422,0,10.725-5.479,19.215-21.378,19.215H28.556V5.378H49.664C64.559,5.378,69.575,13.585,69.575,23.538ZM49.9,16.672H39.4V30.525H50.551c5.865,0,7.255-3.616,7.255-6.987C57.806,20.044,56.648,16.672,49.9,16.672ZM39.438,57.784H50.4c7.756,0,9.338-3.941,9.415-7.922,0-5.485-2.508-8.044-9.223-8.044H39.438Z" transform="translate(52.719 9.929)" fill-rule="evenodd"/>
    <path id="Trazado_1591" data-name="Trazado 1591" d="M61.027,10.445H71.871V59.723H61.027Z" transform="translate(112.667 19.284)"/>
    <path id="Trazado_1592" data-name="Trazado 1592" d="M.012,68.772a8.816,8.816,0,0,0,7.141,8.5,6.265,6.265,0,0,0,1.638.1,8.171,8.171,0,0,0,5.868-2.834,9.042,9.042,0,0,0,2.229-6.39c0-6.437,3.5-10.809,8.279-15.757a212.414,212.414,0,0,1,22.2-14.556c12.509-7.014,20.651-15.325,22.425-22.1l.046-.192a8.406,8.406,0,0,0,.273-2.594,8.815,8.815,0,0,0-7.141-8.5,6.262,6.262,0,0,0-1.638-.1A8.172,8.172,0,0,0,55.46,7.184a9.041,9.041,0,0,0-2.229,6.389c0,6.774-3.867,11.29-9.1,16.526A105.99,105.99,0,0,1,22.709,43.887C10.2,50.9,2.058,59.212.285,65.986l-.045.192A10.391,10.391,0,0,0,.012,68.772Z" transform="translate(0 7.995)" fill="#ef3942"/>
    <path id="Trazado_1593" data-name="Trazado 1593" d="M18.508,19.762s9.1,2.546,6.232,16.046a7.147,7.147,0,0,0-.137,2.21A6.961,6.961,0,0,0,32.018,44.6a7.121,7.121,0,0,0,6.232-7.831C37.613,27.4,20.874,15.918,18.6,16.206c0,0-1.319.048-1.319,1.826A1.7,1.7,0,0,0,18.508,19.762Z" transform="translate(31.902 29.91)" fill="#0c9647"/>
    <path id="Trazado_1594" data-name="Trazado 1594" d="M33.094,19.062s5.959,1.682,4.094,10.473c0,0-1.956,8.311-14.556,10.473-14.237,2.5-14.01-3.027-14.01-3.027C8.485,34.243,7.53,30.929,21.677,21.9,21.677,21.9,28.818,17.285,33.094,19.062Z" transform="translate(15.801 34.44)" fill="#fdd700"/>
    <path id="Trazado_1595" data-name="Trazado 1595" d="M4.683,13.257C5.5,25.267,21.785,39.631,31.52,45.2a9.283,9.283,0,0,0,6.869.817c4.458-2.162-.318-3.987-.318-3.987s-15.329-4.324-10.553-27.1a12.783,12.783,0,0,0,.273-3.747C27.244,4.465,21.649-.531,15.281.045,8.867.622,4.137,6.531,4.683,13.257Z" transform="translate(8.566 0)" fill="#2c70b8"/>
  </g>
</svg>
