<svg xmlns="http://www.w3.org/2000/svg" width="22.066" height="18.507" viewBox="0 0 22.066 18.507">
  <g id="Grupo_24" data-name="Grupo 24" transform="translate(-8 -48)">
    <path id="Trazado_21" data-name="Trazado 21" d="M28.82,48H9.246A1.247,1.247,0,0,0,8,49.246V62.414A1.247,1.247,0,0,0,9.246,63.66h7.218l-.214,1.068H14.762a.356.356,0,0,0-.356.356v1.068a.356.356,0,0,0,.356.356H23.3a.356.356,0,0,0,.356-.356V65.083a.356.356,0,0,0-.356-.356H21.816L21.6,63.66H28.82a1.247,1.247,0,0,0,1.246-1.246V49.246A1.247,1.247,0,0,0,28.82,48ZM22.948,65.439v.356h-7.83v-.356Zm-5.972-.712.214-1.068h3.687l.214,1.068Zm12.378-2.313a.534.534,0,0,1-.534.534H9.246a.534.534,0,0,1-.534-.534v-.89H29.354Zm0-1.6H8.712V49.246a.534.534,0,0,1,.534-.534H28.82a.534.534,0,0,1,.534.534Z" fill="#0a5005"/>
    <path id="Trazado_22" data-name="Trazado 22" d="M241.068,360h-.712a.356.356,0,1,0,0,.712h.712a.356.356,0,1,0,0-.712Z" transform="translate(-221.679 -298.12)" fill="#0a5005"/>
  </g>
</svg>
