<svg id="Grupo_8" data-name="Grupo 8" xmlns="http://www.w3.org/2000/svg" width="136.8" height="23.961" viewBox="0 0 136.8 23.961">
  <path id="Trazado_3" data-name="Trazado 3" d="M59.174,37.711l.736-.111a.53.53,0,0,0,.19.322.648.648,0,0,0,.4.11.726.726,0,0,0,.426-.1.234.234,0,0,0,.1-.2.186.186,0,0,0-.052-.137.558.558,0,0,0-.245-.1,3.906,3.906,0,0,1-1.123-.359.713.713,0,0,1-.328-.622.772.772,0,0,1,.283-.606,1.327,1.327,0,0,1,.881-.246,1.52,1.52,0,0,1,.844.187.95.95,0,0,1,.381.55l-.688.128a.428.428,0,0,0-.168-.25.622.622,0,0,0-.356-.087.8.8,0,0,0-.415.081.173.173,0,0,0-.084.148.159.159,0,0,0,.073.133,2.673,2.673,0,0,0,.686.206,2.056,2.056,0,0,1,.818.326.676.676,0,0,1,.231.545.839.839,0,0,1-.319.654,1.41,1.41,0,0,1-.94.273,1.558,1.558,0,0,1-.9-.228A1.056,1.056,0,0,1,59.174,37.711Z" transform="translate(-8.696 -15.579)" fill="#343a40" fill-rule="evenodd"/>
  <path id="Trazado_4" data-name="Trazado 4" d="M62.152,37.112a.917.917,0,0,0,.2.631.635.635,0,0,0,.959,0,.932.932,0,0,0,.194-.636.917.917,0,0,0-.194-.627.635.635,0,0,0-.959,0A.921.921,0,0,0,62.152,37.112Zm-.752-.04a1.5,1.5,0,0,1,.18-.706,1.235,1.235,0,0,1,.508-.522,1.509,1.509,0,0,1,.735-.18,1.38,1.38,0,0,1,1.028.408,1.413,1.413,0,0,1,.4,1.032,1.43,1.43,0,0,1-.4,1.041,1.369,1.369,0,0,1-1.018.414,1.594,1.594,0,0,1-.725-.173,1.169,1.169,0,0,1-.523-.5A1.681,1.681,0,0,1,61.4,37.072Z" transform="translate(-7.864 -15.579)" fill="#343a40" fill-rule="evenodd"/>
  <rect id="Rectángulo_48" data-name="Rectángulo 48" width="0.73" height="3.816" transform="translate(56.965 19.094)" fill="#343a40"/>
  <path id="Trazado_5" data-name="Trazado 5" d="M66.8,38.473v-.414a1.1,1.1,0,0,1-.4.352,1.085,1.085,0,0,1-.519.132,1.013,1.013,0,0,1-.5-.124.724.724,0,0,1-.32-.343,1.544,1.544,0,0,1-.1-.614V35.707h.731v1.274a3.6,3.6,0,0,0,.04.716.392.392,0,0,0,.148.209.449.449,0,0,0,.272.077.577.577,0,0,0,.337-.1.528.528,0,0,0,.2-.256,2.933,2.933,0,0,0,.055-.747V35.707h.73v2.766Z" transform="translate(-6.531 -15.563)" fill="#343a40" fill-rule="evenodd"/>
  <path id="Trazado_6" data-name="Trazado 6" d="M69.8,36.543l-.72.129a.511.511,0,0,0-.165-.324.5.5,0,0,0-.334-.109.544.544,0,0,0-.436.19.969.969,0,0,0-.163.632,1.124,1.124,0,0,0,.165.7.541.541,0,0,0,.444.2.491.491,0,0,0,.339-.118.717.717,0,0,0,.188-.409l.719.122a1.279,1.279,0,0,1-.429.75,1.331,1.331,0,0,1-.851.253,1.26,1.26,0,0,1-.966-.383,1.75,1.75,0,0,1,0-2.13,1.286,1.286,0,0,1,.978-.382,1.329,1.329,0,0,1,.8.218A1.2,1.2,0,0,1,69.8,36.543Z" transform="translate(-5.685 -15.579)" fill="#343a40" fill-rule="evenodd"/>
  <path id="Trazado_7" data-name="Trazado 7" d="M69.5,38.759V35.993h.731v2.766Zm0-3.138v-.677h.731v.677Z" transform="translate(-4.833 -15.849)" fill="#343a40" fill-rule="evenodd"/>
  <path id="Trazado_8" data-name="Trazado 8" d="M71.206,37.112a.917.917,0,0,0,.2.631.637.637,0,0,0,.96,0,.939.939,0,0,0,.192-.636.924.924,0,0,0-.192-.627.637.637,0,0,0-.96,0A.921.921,0,0,0,71.206,37.112Zm-.752-.04a1.5,1.5,0,0,1,.18-.706,1.235,1.235,0,0,1,.508-.522,1.513,1.513,0,0,1,.735-.18,1.38,1.38,0,0,1,1.028.408,1.413,1.413,0,0,1,.4,1.032,1.43,1.43,0,0,1-.4,1.041,1.369,1.369,0,0,1-1.018.414,1.594,1.594,0,0,1-.725-.173,1.169,1.169,0,0,1-.523-.5A1.681,1.681,0,0,1,70.454,37.072Z" transform="translate(-4.477 -15.579)" fill="#343a40" fill-rule="evenodd"/>
  <path id="Trazado_9" data-name="Trazado 9" d="M75.469,38.489h-.731v-1.41a2.162,2.162,0,0,0-.047-.578.4.4,0,0,0-.154-.2.437.437,0,0,0-.256-.073.6.6,0,0,0-.345.1.541.541,0,0,0-.209.276,2.383,2.383,0,0,0-.056.635v1.25h-.73V35.723h.677v.407a1.143,1.143,0,0,1,1.36-.378.739.739,0,0,1,.3.223.808.808,0,0,1,.144.306,2.237,2.237,0,0,1,.041.492Z" transform="translate(-3.547 -15.579)" fill="#343a40" fill-rule="evenodd"/>
  <path id="Trazado_10" data-name="Trazado 10" d="M77.021,36.874a.71.71,0,0,0-.163-.485.526.526,0,0,0-.774.01.672.672,0,0,0-.153.475Zm-.043.741.73.122a1.189,1.189,0,0,1-.444.611,1.3,1.3,0,0,1-.758.21,1.236,1.236,0,0,1-1.066-.473,1.582,1.582,0,0,1-.273-.954,1.533,1.533,0,0,1,.359-1.079,1.183,1.183,0,0,1,.908-.39,1.225,1.225,0,0,1,.973.408,1.811,1.811,0,0,1,.341,1.25H75.918a.744.744,0,0,0,.176.506.551.551,0,0,0,.42.181.444.444,0,0,0,.289-.093A.579.579,0,0,0,76.978,37.615Z" transform="translate(-2.715 -15.579)" fill="#343a40" fill-rule="evenodd"/>
  <path id="Trazado_11" data-name="Trazado 11" d="M77.291,37.711l.735-.111a.538.538,0,0,0,.191.322.644.644,0,0,0,.4.11.731.731,0,0,0,.427-.1.234.234,0,0,0,.1-.2.192.192,0,0,0-.052-.137.566.566,0,0,0-.245-.1,3.906,3.906,0,0,1-1.123-.359.711.711,0,0,1-.33-.622.769.769,0,0,1,.284-.606,1.324,1.324,0,0,1,.881-.246,1.52,1.52,0,0,1,.844.187.95.95,0,0,1,.381.55l-.688.128a.436.436,0,0,0-.169-.25.614.614,0,0,0-.354-.087.805.805,0,0,0-.416.081.176.176,0,0,0-.084.148.163.163,0,0,0,.073.133,2.715,2.715,0,0,0,.686.206,2.064,2.064,0,0,1,.819.326.675.675,0,0,1,.229.545.838.838,0,0,1-.317.654,1.414,1.414,0,0,1-.941.273,1.556,1.556,0,0,1-.894-.228A1.05,1.05,0,0,1,77.291,37.711Z" transform="translate(-1.921 -15.579)" fill="#343a40" fill-rule="evenodd"/>
  <path id="Trazado_12" data-name="Trazado 12" d="M82.416,36.874a.71.71,0,0,0-.163-.485.526.526,0,0,0-.774.01.678.678,0,0,0-.153.475Zm-.043.741.731.122a1.2,1.2,0,0,1-.444.611,1.3,1.3,0,0,1-.758.21,1.237,1.237,0,0,1-1.068-.473,1.591,1.591,0,0,1-.273-.954,1.533,1.533,0,0,1,.359-1.079,1.185,1.185,0,0,1,.908-.39,1.225,1.225,0,0,1,.973.408,1.812,1.812,0,0,1,.341,1.25H81.313a.738.738,0,0,0,.177.506.546.546,0,0,0,.419.181.444.444,0,0,0,.289-.093A.579.579,0,0,0,82.373,37.615Z" transform="translate(-0.698 -15.579)" fill="#343a40" fill-rule="evenodd"/>
  <path id="Trazado_13" data-name="Trazado 13" d="M83.952,38.759V35.993h.73v2.766Zm0-3.138v-.677h.73v.677Z" transform="translate(0.571 -15.849)" fill="#343a40" fill-rule="evenodd"/>
  <path id="Trazado_14" data-name="Trazado 14" d="M87.545,38.489h-.73v-1.41a2.226,2.226,0,0,0-.047-.578.412.412,0,0,0-.154-.2.438.438,0,0,0-.257-.073.6.6,0,0,0-.344.1.534.534,0,0,0-.209.276,2.382,2.382,0,0,0-.056.635v1.25h-.73V35.723H85.7v.407a1.143,1.143,0,0,1,1.36-.378.735.735,0,0,1,.305.223.808.808,0,0,1,.144.306,2.253,2.253,0,0,1,.04.492Z" transform="translate(0.97 -15.579)" fill="#343a40" fill-rule="evenodd"/>
  <path id="Trazado_15" data-name="Trazado 15" d="M89.918,38.489h-.731v-1.41a2.164,2.164,0,0,0-.047-.578.4.4,0,0,0-.154-.2.431.431,0,0,0-.256-.073.6.6,0,0,0-.344.1.527.527,0,0,0-.209.276,2.325,2.325,0,0,0-.056.635v1.25h-.731V35.723h.677v.407a1.143,1.143,0,0,1,1.36-.378.744.744,0,0,1,.305.223.785.785,0,0,1,.143.306,2.236,2.236,0,0,1,.041.492Z" transform="translate(1.857 -15.579)" fill="#343a40" fill-rule="evenodd"/>
  <path id="Trazado_16" data-name="Trazado 16" d="M90.4,37.112a.917.917,0,0,0,.2.631.637.637,0,0,0,.96,0,.932.932,0,0,0,.194-.636.917.917,0,0,0-.194-.627.637.637,0,0,0-.96,0A.921.921,0,0,0,90.4,37.112Zm-.752-.04a1.5,1.5,0,0,1,.18-.706,1.235,1.235,0,0,1,.508-.522,1.513,1.513,0,0,1,.735-.18,1.378,1.378,0,0,1,1.028.408,1.414,1.414,0,0,1,.4,1.032,1.431,1.431,0,0,1-.405,1.041,1.367,1.367,0,0,1-1.018.414,1.6,1.6,0,0,1-.725-.173,1.169,1.169,0,0,1-.523-.5A1.681,1.681,0,0,1,89.646,37.072Z" transform="translate(2.7 -15.579)" fill="#343a40" fill-rule="evenodd"/>
  <path id="Trazado_17" data-name="Trazado 17" d="M93,38.473l-1.114-2.766h.768l.519,1.412.151.471c.04-.121.066-.2.077-.238.023-.078.049-.157.078-.234l.528-1.412h.752l-1.1,2.766Z" transform="translate(3.537 -15.563)" fill="#343a40" fill-rule="evenodd"/>
  <path id="Trazado_18" data-name="Trazado 18" d="M95.878,37.167a4.543,4.543,0,0,1-.445.113,1.332,1.332,0,0,0-.4.126.306.306,0,0,0-.144.258.357.357,0,0,0,.115.265.4.4,0,0,0,.291.113.632.632,0,0,0,.376-.131.454.454,0,0,0,.174-.242,1.44,1.44,0,0,0,.029-.357Zm-.981-.591-.661-.118a1.047,1.047,0,0,1,.386-.6,1.4,1.4,0,0,1,.812-.2,1.728,1.728,0,0,1,.728.117.723.723,0,0,1,.338.294,1.511,1.511,0,0,1,.1.654l-.011.853a2.991,2.991,0,0,0,.034.537,1.6,1.6,0,0,0,.131.37h-.724c-.019-.048-.043-.118-.07-.213-.012-.043-.021-.071-.026-.085a1.341,1.341,0,0,1-.4.276,1.143,1.143,0,0,1-.453.092.93.93,0,0,1-.671-.232.77.77,0,0,1-.246-.585.792.792,0,0,1,.111-.418.734.734,0,0,1,.315-.28,2.36,2.36,0,0,1,.58-.17,3.929,3.929,0,0,0,.71-.18v-.074a.383.383,0,0,0-.1-.3.618.618,0,0,0-.393-.091.516.516,0,0,0-.305.078A.531.531,0,0,0,94.9,36.576Z" transform="translate(4.389 -15.579)" fill="#343a40" fill-rule="evenodd"/>
  <path id="Trazado_19" data-name="Trazado 19" d="M98.914,36.543l-.72.129a.518.518,0,0,0-.165-.324.505.505,0,0,0-.334-.109.547.547,0,0,0-.437.19.97.97,0,0,0-.162.632,1.124,1.124,0,0,0,.165.7.541.541,0,0,0,.444.2.493.493,0,0,0,.339-.118.717.717,0,0,0,.187-.409l.72.122a1.279,1.279,0,0,1-.429.75,1.334,1.334,0,0,1-.851.253,1.264,1.264,0,0,1-.967-.383,1.752,1.752,0,0,1,0-2.13,1.286,1.286,0,0,1,.978-.382,1.329,1.329,0,0,1,.8.218A1.2,1.2,0,0,1,98.914,36.543Z" transform="translate(5.205 -15.579)" fill="#343a40" fill-rule="evenodd"/>
  <path id="Trazado_20" data-name="Trazado 20" d="M98.621,38.759V35.993h.731v2.766Zm0-3.138v-.677h.731v.677Z" transform="translate(6.057 -15.849)" fill="#343a40" fill-rule="evenodd"/>
  <path id="Trazado_21" data-name="Trazado 21" d="M100.665,35.659l.363-.778h.815l-.719.778Zm-.341,1.746a.917.917,0,0,0,.2.631.636.636,0,0,0,.959,0,.932.932,0,0,0,.194-.636.917.917,0,0,0-.194-.627.636.636,0,0,0-.959,0A.921.921,0,0,0,100.325,37.405Zm-.752-.04a1.5,1.5,0,0,1,.179-.706,1.246,1.246,0,0,1,.51-.522,1.509,1.509,0,0,1,.735-.18,1.38,1.38,0,0,1,1.028.408,1.413,1.413,0,0,1,.4,1.032,1.43,1.43,0,0,1-.4,1.041,1.372,1.372,0,0,1-1.019.414,1.592,1.592,0,0,1-.724-.173,1.179,1.179,0,0,1-.525-.5A1.681,1.681,0,0,1,99.573,37.365Z" transform="translate(6.413 -15.872)" fill="#343a40" fill-rule="evenodd"/>
  <path id="Trazado_22" data-name="Trazado 22" d="M104.586,38.489h-.73v-1.41a2.142,2.142,0,0,0-.048-.578.4.4,0,0,0-.153-.2.438.438,0,0,0-.257-.073.6.6,0,0,0-.343.1.534.534,0,0,0-.209.276,2.383,2.383,0,0,0-.056.635v1.25h-.73V35.723h.676v.407a1.143,1.143,0,0,1,1.36-.378.735.735,0,0,1,.305.223.808.808,0,0,1,.144.306,2.252,2.252,0,0,1,.04.492Z" transform="translate(7.343 -15.579)" fill="#343a40" fill-rule="evenodd"/>
  <path id="Trazado_23" data-name="Trazado 23" d="M104.44,37.189h.731v.523a1.789,1.789,0,0,1-.055.5.735.735,0,0,1-.206.33,1.061,1.061,0,0,1-.386.229l-.142-.3a.607.607,0,0,0,.312-.2.6.6,0,0,0,.1-.349h-.352Z" transform="translate(8.211 -15.009)" fill="#343a40" fill-rule="evenodd"/>
  <path id="Trazado_24" data-name="Trazado 24" d="M106.4,37.711l.735-.111a.538.538,0,0,0,.191.322.644.644,0,0,0,.4.11.728.728,0,0,0,.427-.1.234.234,0,0,0,.1-.2.192.192,0,0,0-.052-.137.558.558,0,0,0-.245-.1,3.905,3.905,0,0,1-1.123-.359.71.71,0,0,1-.328-.622.772.772,0,0,1,.283-.606,1.327,1.327,0,0,1,.881-.246,1.52,1.52,0,0,1,.844.187.95.95,0,0,1,.381.55l-.688.128a.424.424,0,0,0-.169-.25.614.614,0,0,0-.354-.087.805.805,0,0,0-.416.081.176.176,0,0,0-.084.148.161.161,0,0,0,.074.133,2.673,2.673,0,0,0,.686.206,2.056,2.056,0,0,1,.818.326.675.675,0,0,1,.229.545.838.838,0,0,1-.317.654,1.412,1.412,0,0,1-.941.273,1.556,1.556,0,0,1-.894-.228A1.05,1.05,0,0,1,106.4,37.711Z" transform="translate(8.966 -15.579)" fill="#343a40" fill-rule="evenodd"/>
  <path id="Trazado_25" data-name="Trazado 25" d="M108.751,38.759V35.993h.73v2.766Zm0-3.138v-.677h.73v.677Z" transform="translate(9.845 -15.849)" fill="#343a40" fill-rule="evenodd"/>
  <path id="Trazado_26" data-name="Trazado 26" d="M111.526,36.874a.7.7,0,0,0-.164-.485.5.5,0,0,0-.378-.165.507.507,0,0,0-.4.174.685.685,0,0,0-.153.475Zm-.043.741.731.122a1.2,1.2,0,0,1-.444.611,1.3,1.3,0,0,1-.758.21,1.237,1.237,0,0,1-1.068-.473,1.591,1.591,0,0,1-.273-.954,1.527,1.527,0,0,1,.36-1.079,1.18,1.18,0,0,1,.907-.39,1.225,1.225,0,0,1,.973.408,1.8,1.8,0,0,1,.341,1.25h-1.829a.738.738,0,0,0,.177.506.548.548,0,0,0,.419.181.441.441,0,0,0,.289-.093A.57.57,0,0,0,111.483,37.615Z" transform="translate(10.189 -15.579)" fill="#343a40" fill-rule="evenodd"/>
  <path id="Trazado_27" data-name="Trazado 27" d="M111.948,35.723h.671V36.1a1.089,1.089,0,0,1,.861-.437.928.928,0,0,1,.46.11.842.842,0,0,1,.32.33,1.262,1.262,0,0,1,.393-.33.961.961,0,0,1,.449-.11,1,1,0,0,1,.515.124.758.758,0,0,1,.316.363,1.6,1.6,0,0,1,.076.573v1.766h-.731V36.91a1.166,1.166,0,0,0-.076-.53.347.347,0,0,0-.312-.155.5.5,0,0,0-.29.093.515.515,0,0,0-.2.273,1.979,1.979,0,0,0-.06.572v1.326h-.73V36.976a2.084,2.084,0,0,0-.04-.521.331.331,0,0,0-.121-.174.385.385,0,0,0-.221-.056.538.538,0,0,0-.305.091.5.5,0,0,0-.192.262,1.922,1.922,0,0,0-.059.57v1.341h-.73Z" transform="translate(11.041 -15.579)" fill="#343a40" fill-rule="evenodd"/>
  <path id="Trazado_28" data-name="Trazado 28" d="M116.138,37.063a1.068,1.068,0,0,0,.184.691.559.559,0,0,0,.449.224.529.529,0,0,0,.423-.2,1.063,1.063,0,0,0,.169-.673,1,1,0,0,0-.174-.649.539.539,0,0,0-.431-.212.56.56,0,0,0-.444.209A.93.93,0,0,0,116.138,37.063Zm-.72-1.34h.683v.407a1.017,1.017,0,0,1,.862-.466,1.054,1.054,0,0,1,.818.379,1.536,1.536,0,0,1,.335,1.052,1.574,1.574,0,0,1-.339,1.079,1.056,1.056,0,0,1-.82.385.933.933,0,0,1-.415-.091,1.428,1.428,0,0,1-.393-.313V39.54h-.73Z" transform="translate(12.338 -15.579)" fill="#343a40" fill-rule="evenodd"/>
  <path id="Trazado_29" data-name="Trazado 29" d="M118.512,38.489h-.73V35.723h.676v.393a1.176,1.176,0,0,1,.315-.365.592.592,0,0,1,.317-.087.934.934,0,0,1,.482.139l-.227.638a.644.644,0,0,0-.343-.12.407.407,0,0,0-.261.084.568.568,0,0,0-.168.306,4.277,4.277,0,0,0-.062.925Z" transform="translate(13.223 -15.579)" fill="#343a40" fill-rule="evenodd"/>
  <path id="Trazado_30" data-name="Trazado 30" d="M121.012,36.874a.7.7,0,0,0-.164-.485.5.5,0,0,0-.378-.165.507.507,0,0,0-.4.174.685.685,0,0,0-.153.475Zm-.043.741.731.122a1.2,1.2,0,0,1-.444.611,1.3,1.3,0,0,1-.758.21,1.237,1.237,0,0,1-1.068-.473,1.591,1.591,0,0,1-.272-.954,1.533,1.533,0,0,1,.359-1.079,1.18,1.18,0,0,1,.907-.39,1.225,1.225,0,0,1,.973.408,1.8,1.8,0,0,1,.341,1.25h-1.829a.738.738,0,0,0,.177.506.551.551,0,0,0,.42.181.44.44,0,0,0,.287-.093A.562.562,0,0,0,120.969,37.615Z" transform="translate(13.737 -15.579)" fill="#343a40" fill-rule="evenodd"/>
  <rect id="Rectángulo_49" data-name="Rectángulo 49" width="0.73" height="0.73" transform="translate(136.07 22.18)" fill="#343a40"/>
  <path id="Trazado_31" data-name="Trazado 31" d="M22.436,21.046H37.382v3.931H32.363v11.97H27.455V24.977H22.436Z" transform="translate(-22.436 -21.046)" fill="#343a40" fill-rule="evenodd"/>
  <path id="Trazado_32" data-name="Trazado 32" d="M37.939,30.094a3.514,3.514,0,0,0,.621,2.286,2.027,2.027,0,0,0,3.122.011,3.632,3.632,0,0,0,.61-2.341,3.421,3.421,0,0,0-.616-2.235,1.908,1.908,0,0,0-1.522-.735,1.987,1.987,0,0,0-1.588.745A3.472,3.472,0,0,0,37.939,30.094ZM33.52,30.1A5.781,5.781,0,0,1,35.3,25.748a6.622,6.622,0,0,1,4.8-1.711,6.578,6.578,0,0,1,5.22,2.009,5.833,5.833,0,0,1,1.419,3.987,5.8,5.8,0,0,1-1.76,4.362,6.713,6.713,0,0,1-4.868,1.7,6.818,6.818,0,0,1-4.485-1.412A5.679,5.679,0,0,1,33.52,30.1Z" transform="translate(-18.29 -19.927)" fill="#343a40" fill-rule="evenodd"/>
  <path id="Trazado_33" data-name="Trazado 33" d="M50.206,21.046v4.376h2.421v3.241H50.206v4.078a2.171,2.171,0,0,0,.142.973.81.81,0,0,0,.761.368,4.887,4.887,0,0,0,1.37-.28l.326,3.053a14.332,14.332,0,0,1-3.058.359,5.321,5.321,0,0,1-2.429-.422,2.587,2.587,0,0,1-1.156-1.285,7.569,7.569,0,0,1-.374-2.791V28.663H44.166V25.422h1.621V23.309Z" transform="translate(-14.309 -21.046)" fill="#343a40" fill-rule="evenodd"/>
  <path id="Trazado_34" data-name="Trazado 34" d="M59.858,30.344q-.911.328-1.9.581a4.374,4.374,0,0,0-1.705.712,1.147,1.147,0,0,0-.005,1.682,1.533,1.533,0,0,0,1.07.334,2.742,2.742,0,0,0,1.374-.361,2.172,2.172,0,0,0,.9-.882,2.981,2.981,0,0,0,.265-1.353Zm-3.82-2.31-4.22-.444a4.774,4.774,0,0,1,.688-1.745,3.8,3.8,0,0,1,1.294-1.1,5.433,5.433,0,0,1,1.668-.521,13.357,13.357,0,0,1,2.3-.184,18.2,18.2,0,0,1,3.185.223,4.094,4.094,0,0,1,2,.927,3.264,3.264,0,0,1,.889,1.385,5.032,5.032,0,0,1,.324,1.709v5.093a6.161,6.161,0,0,0,.1,1.276,5.693,5.693,0,0,0,.451,1.178H60.583a4.308,4.308,0,0,1-.324-.673,4.8,4.8,0,0,1-.151-.727,5.709,5.709,0,0,1-1.724,1.19,7.2,7.2,0,0,1-2.722.477,4.548,4.548,0,0,1-3.13-.958,3.044,3.044,0,0,1-1.068-2.359,3.1,3.1,0,0,1,.769-2.165,5.217,5.217,0,0,1,2.841-1.261q2.483-.5,3.222-.7a14.716,14.716,0,0,0,1.561-.526,1.556,1.556,0,0,0-.335-1.14,1.678,1.678,0,0,0-1.179-.326,3.032,3.032,0,0,0-1.623.349A1.919,1.919,0,0,0,56.038,28.034Z" transform="translate(-11.579 -19.927)" fill="#343a40" fill-rule="evenodd"/>
  <rect id="Rectángulo_50" data-name="Rectángulo 50" width="4.419" height="15.901" transform="translate(55.378 0.001)" fill="#343a40"/>
  <path id="Trazado_35" data-name="Trazado 35" d="M73.139,27.842h1.21a3.128,3.128,0,0,0,2.009-.495,1.593,1.593,0,0,0,.578-1.265,1.762,1.762,0,0,0-.5-1.271,2.608,2.608,0,0,0-1.888-.522H73.139Zm-4.93-6.8h8.172a5.593,5.593,0,0,1,4,1.271,4.771,4.771,0,0,1,1.33,3.618A4.913,4.913,0,0,1,80.26,29.7a6.285,6.285,0,0,1-4.427,1.358H73.139v5.885h-4.93Z" transform="translate(-5.317 -21.046)" fill="#343a40" fill-rule="evenodd"/>
  <path id="Trazado_36" data-name="Trazado 36" d="M87.493,30.344q-.911.328-1.9.581a4.374,4.374,0,0,0-1.705.712,1.147,1.147,0,0,0-.005,1.682,1.533,1.533,0,0,0,1.07.334,2.742,2.742,0,0,0,1.374-.361,2.172,2.172,0,0,0,.9-.882,2.98,2.98,0,0,0,.265-1.353Zm-3.82-2.31-4.22-.444a4.774,4.774,0,0,1,.688-1.745,3.8,3.8,0,0,1,1.294-1.1,5.433,5.433,0,0,1,1.668-.521,13.357,13.357,0,0,1,2.3-.184,18.215,18.215,0,0,1,3.185.223,4.094,4.094,0,0,1,2,.927,3.251,3.251,0,0,1,.889,1.385,5.032,5.032,0,0,1,.324,1.709v5.093a6.161,6.161,0,0,0,.1,1.276,5.693,5.693,0,0,0,.451,1.178H88.218a4.308,4.308,0,0,1-.324-.673,4.8,4.8,0,0,1-.151-.727,5.709,5.709,0,0,1-1.724,1.19A7.2,7.2,0,0,1,83.3,36.1a4.548,4.548,0,0,1-3.13-.958A3.044,3.044,0,0,1,79.1,32.778a3.1,3.1,0,0,1,.769-2.165,5.217,5.217,0,0,1,2.841-1.261q2.486-.5,3.222-.7a14.717,14.717,0,0,0,1.561-.526,1.556,1.556,0,0,0-.335-1.14,1.678,1.678,0,0,0-1.179-.326,3.032,3.032,0,0,0-1.623.349A1.919,1.919,0,0,0,83.673,28.034Z" transform="translate(-1.244 -19.927)" fill="#343a40" fill-rule="evenodd"/>
  <path id="Trazado_37" data-name="Trazado 37" d="M99,31.321l4.2.466a5.918,5.918,0,0,1-1.139,2.279,5.293,5.293,0,0,1-2.024,1.5,7.914,7.914,0,0,1-3.13.533,11.518,11.518,0,0,1-3.054-.342,5.334,5.334,0,0,1-2.1-1.107,5.615,5.615,0,0,1-1.378-1.8,6.333,6.333,0,0,1-.5-2.736,6.445,6.445,0,0,1,.609-2.962A5.366,5.366,0,0,1,91.7,25.594a5.585,5.585,0,0,1,1.584-1.025,8.785,8.785,0,0,1,3.311-.532,7.644,7.644,0,0,1,4.3,1.007,5.3,5.3,0,0,1,2.079,2.946l-4.152.555a1.931,1.931,0,0,0-.712-1.114,2.317,2.317,0,0,0-1.385-.374,2.231,2.231,0,0,0-1.777.786,3.561,3.561,0,0,0-.68,2.381,3.1,3.1,0,0,0,.673,2.157,2.216,2.216,0,0,0,1.715.738,2.372,2.372,0,0,0,1.459-.441A2.628,2.628,0,0,0,99,31.321Z" transform="translate(2.785 -19.927)" fill="#343a40" fill-rule="evenodd"/>
  <path id="Trazado_38" data-name="Trazado 38" d="M100.844,21.046h4.508v8.188l3.3-3.813h5.43l-4.129,4.036,4.373,7.49h-4.973l-2.338-4.62-1.662,1.625v3h-4.508Z" transform="translate(6.888 -21.046)" fill="#343a40" fill-rule="evenodd"/>
  <path id="Trazado_39" data-name="Trazado 39" d="M111.954,31.685h.442a.658.658,0,0,0,.22-.029.232.232,0,0,0,.121-.093.26.26,0,0,0,.041-.14.234.234,0,0,0-.08-.183.378.378,0,0,0-.253-.071h-.492Zm-.207.871V31h.691a.889.889,0,0,1,.316.043.337.337,0,0,1,.173.148.433.433,0,0,1,.066.235.391.391,0,0,1-.107.279.547.547,0,0,1-.333.144.52.52,0,0,1,.125.078,1.019,1.019,0,0,1,.17.207l.269.425h-.257l-.206-.324c-.06-.095-.11-.166-.148-.216a.527.527,0,0,0-.1-.1.355.355,0,0,0-.095-.041.719.719,0,0,0-.114-.007h-.239v.692Z" transform="translate(10.966 -17.324)" fill="#343a40" fill-rule="evenodd"/>
  <path id="Trazado_40" data-name="Trazado 40" d="M111.068,31.961a1.459,1.459,0,1,1,1.459,1.459A1.46,1.46,0,0,1,111.068,31.961Z" transform="translate(10.712 -17.51)" fill="#343a40" stroke="#262324" stroke-miterlimit="3.864" stroke-width="0.502"/>
</svg>
