<svg xmlns="http://www.w3.org/2000/svg" width="192.814" height="29.672" viewBox="0 0 192.814 29.672">
  <g id="Grupo_20" data-name="Grupo 20" transform="translate(-1708.923 -1047.321)" opacity="0.68">
    <g id="Grupo_19" data-name="Grupo 19">
      <g id="Grupo_18" data-name="Grupo 18">
        <path id="Trazado_8" data-name="Trazado 8" d="M1775.415,1053.346h15.576v4.1h-5.231v12.475h-5.115v-12.475h-5.231Z" fill="#b9b9b9" fill-rule="evenodd"/>
        <path id="Trazado_9" data-name="Trazado 9" d="M1795.892,1063.941a3.655,3.655,0,0,0,.648,2.382,2.111,2.111,0,0,0,3.253.011,3.782,3.782,0,0,0,.636-2.439,3.571,3.571,0,0,0-.642-2.331,1.993,1.993,0,0,0-1.587-.765,2.069,2.069,0,0,0-1.655.777A3.616,3.616,0,0,0,1795.892,1063.941Zm-4.6.005a6.026,6.026,0,0,1,1.851-4.535,8.012,8.012,0,0,1,10.441.312,6.563,6.563,0,0,1-.356,8.7,6.994,6.994,0,0,1-5.073,1.772,7.1,7.1,0,0,1-4.674-1.472A5.916,5.916,0,0,1,1791.287,1063.946Z" fill="#b9b9b9" fill-rule="evenodd"/>
        <path id="Trazado_10" data-name="Trazado 10" d="M1812.826,1053.346v4.56h2.523v3.379h-2.523v4.249a2.287,2.287,0,0,0,.147,1.015.846.846,0,0,0,.793.383,5.1,5.1,0,0,0,1.428-.293l.34,3.182a14.975,14.975,0,0,1-3.188.374,5.557,5.557,0,0,1-2.532-.44,2.692,2.692,0,0,1-1.2-1.338,7.869,7.869,0,0,1-.39-2.908v-4.224h-1.689v-3.379h1.689v-2.2Z" fill="#b9b9b9" fill-rule="evenodd"/>
        <path id="Trazado_11" data-name="Trazado 11" d="M1825.729,1064.2q-.951.342-1.981.6a4.571,4.571,0,0,0-1.777.742,1.174,1.174,0,0,0-.385.857,1.162,1.162,0,0,0,.38.9,1.594,1.594,0,0,0,1.115.348,2.843,2.843,0,0,0,1.431-.376,2.273,2.273,0,0,0,.94-.92,3.1,3.1,0,0,0,.277-1.41Zm-3.981-2.407-4.4-.463a4.973,4.973,0,0,1,.717-1.818,3.963,3.963,0,0,1,1.349-1.149,5.612,5.612,0,0,1,1.738-.543,13.9,13.9,0,0,1,2.393-.193,18.937,18.937,0,0,1,3.319.232,4.26,4.26,0,0,1,2.088.968,3.4,3.4,0,0,1,.926,1.442,5.248,5.248,0,0,1,.338,1.783v5.307a6.378,6.378,0,0,0,.108,1.33,5.955,5.955,0,0,0,.469,1.228h-4.311a4.341,4.341,0,0,1-.338-.7,5.066,5.066,0,0,1-.158-.758,5.96,5.96,0,0,1-1.8,1.241,7.494,7.494,0,0,1-2.837.5,4.739,4.739,0,0,1-3.261-1,3.174,3.174,0,0,1-1.113-2.46,3.23,3.23,0,0,1,.8-2.256,5.431,5.431,0,0,1,2.961-1.315q2.589-.521,3.358-.731a15.757,15.757,0,0,0,1.627-.549,1.627,1.627,0,0,0-.349-1.189,1.754,1.754,0,0,0-1.23-.339,3.144,3.144,0,0,0-1.691.365A2,2,0,0,0,1821.748,1061.794Z" fill="#b9b9b9" fill-rule="evenodd"/>
        <rect id="Rectángulo_330" data-name="Rectángulo 330" width="4.606" height="16.571" transform="translate(1833.127 1053.346)" fill="#b9b9b9"/>
        <path id="Trazado_12" data-name="Trazado 12" d="M1846.1,1060.428h1.262a3.258,3.258,0,0,0,2.093-.515,1.656,1.656,0,0,0,.6-1.319,1.838,1.838,0,0,0-.524-1.325,2.72,2.72,0,0,0-1.967-.544H1846.1Zm-5.138-7.082h8.517a5.827,5.827,0,0,1,4.169,1.325,4.969,4.969,0,0,1,1.385,3.77,5.116,5.116,0,0,1-1.511,3.928,6.548,6.548,0,0,1-4.614,1.415H1846.1v6.134h-5.138Z" fill="#b9b9b9" fill-rule="evenodd"/>
        <path id="Trazado_13" data-name="Trazado 13" d="M1865.3,1064.2q-.951.342-1.981.6a4.564,4.564,0,0,0-1.777.742,1.2,1.2,0,0,0-.006,1.753,1.6,1.6,0,0,0,1.115.348,2.847,2.847,0,0,0,1.432-.376,2.272,2.272,0,0,0,.94-.92,3.094,3.094,0,0,0,.277-1.41Zm-3.981-2.407-4.4-.463a4.939,4.939,0,0,1,.717-1.818,3.959,3.959,0,0,1,1.348-1.149,5.628,5.628,0,0,1,1.739-.543,13.9,13.9,0,0,1,2.393-.193,18.945,18.945,0,0,1,3.319.232,4.261,4.261,0,0,1,2.088.968,3.386,3.386,0,0,1,.925,1.442,5.227,5.227,0,0,1,.339,1.783v5.307a6.468,6.468,0,0,0,.107,1.33,6.02,6.02,0,0,0,.469,1.228h-4.31a4.453,4.453,0,0,1-.339-.7,5.223,5.223,0,0,1-.157-.758,5.959,5.959,0,0,1-1.8,1.241,7.493,7.493,0,0,1-2.837.5,4.739,4.739,0,0,1-3.261-1,3.174,3.174,0,0,1-1.113-2.46,3.229,3.229,0,0,1,.8-2.256,5.431,5.431,0,0,1,2.961-1.315q2.589-.521,3.357-.731a15.762,15.762,0,0,0,1.628-.549,1.628,1.628,0,0,0-.349-1.189,1.756,1.756,0,0,0-1.23-.339,3.141,3.141,0,0,0-1.691.365A1.991,1.991,0,0,0,1861.319,1061.794Z" fill="#b9b9b9" fill-rule="evenodd"/>
        <path id="Trazado_14" data-name="Trazado 14" d="M1881.493,1065.219l4.374.486a6.156,6.156,0,0,1-1.187,2.376,5.527,5.527,0,0,1-2.109,1.559,8.27,8.27,0,0,1-3.263.555,12.035,12.035,0,0,1-3.183-.356,5.571,5.571,0,0,1-2.188-1.154,5.837,5.837,0,0,1-1.436-1.872,6.59,6.59,0,0,1-.52-2.85,6.727,6.727,0,0,1,.633-3.089,5.6,5.6,0,0,1,1.268-1.623,5.829,5.829,0,0,1,1.651-1.069,9.167,9.167,0,0,1,3.451-.554,7.967,7.967,0,0,1,4.485,1.05,5.531,5.531,0,0,1,2.167,3.07l-4.328.578a2.009,2.009,0,0,0-.742-1.16,2.406,2.406,0,0,0-1.443-.39,2.33,2.33,0,0,0-1.852.819,3.714,3.714,0,0,0-.708,2.481,3.23,3.23,0,0,0,.7,2.249,2.311,2.311,0,0,0,1.787.769,2.47,2.47,0,0,0,1.521-.46A2.752,2.752,0,0,0,1881.493,1065.219Z" fill="#b9b9b9" fill-rule="evenodd"/>
        <path id="Trazado_15" data-name="Trazado 15" d="M1887.688,1053.346h4.7v8.533l3.437-3.974h5.659l-4.3,4.206,4.558,7.806h-5.182l-2.436-4.815-1.732,1.693v3.122h-4.7Z" fill="#b9b9b9" fill-rule="evenodd"/>
      </g>
    </g>
    <text id="Powered_by" data-name="Powered by" transform="translate(1708.923 1065.657)" fill="#b9b9b9" font-size="10.878" font-family="OpenSans-SemiBoldItalic, Open Sans" font-weight="600" font-style="italic"><tspan x="0" y="0">Powered by</tspan></text>
    <line id="Línea_1" data-name="Línea 1" y2="29.672" transform="translate(1770.751 1047.321)" fill="none" stroke="#a8a9a9" stroke-miterlimit="10" stroke-width="0.75"/>
  </g>
</svg>
