<svg xmlns="http://www.w3.org/2000/svg" width="14.934" height="13.177" viewBox="0 0 14.934 13.177">
  <g id="Grupo_26" data-name="Grupo 26" transform="translate(-447.866 -221.889)">
    <path id="Trazado_23" data-name="Trazado 23" d="M451.38,223.207a1.318,1.318,0,1,0-1.317,1.317h0A1.317,1.317,0,0,0,451.38,223.207Zm-1.317.439a.439.439,0,1,1,.439-.439A.44.44,0,0,1,450.063,223.646Z" fill="#2a4318"/>
    <path id="Trazado_23-2" data-name="Trazado 23" d="M451.38,223.207a1.318,1.318,0,1,0-1.317,1.317h0A1.317,1.317,0,0,0,451.38,223.207Zm-1.317.439a.439.439,0,1,1,.439-.439A.44.44,0,0,1,450.063,223.646Z" transform="translate(5.271)" fill="#2a4318"/>
    <path id="Trazado_24" data-name="Trazado 24" d="M448.306,229.795h.439v4.831a.44.44,0,0,0,.439.44h1.757a.44.44,0,0,0,.44-.44h0v-4.831h.439a.44.44,0,0,0,.439-.439h0V226.72a2.2,2.2,0,0,0-4.393,0h0v2.636a.44.44,0,0,0,.44.439Zm.439-3.075a1.318,1.318,0,0,1,2.636,0v2.2h-.44a.44.44,0,0,0-.439.44v4.831h-.878v-4.831a.44.44,0,0,0-.44-.439h-.439Z" fill="#2a4318"/>
    <path id="Trazado_24-2" data-name="Trazado 24" d="M448.306,229.795h.439v4.831a.44.44,0,0,0,.439.44h1.757a.44.44,0,0,0,.44-.44h0v-4.831h.439a.44.44,0,0,0,.439-.439h0V226.72a2.2,2.2,0,0,0-4.393,0h0v2.636a.44.44,0,0,0,.44.439Zm.439-3.075a1.318,1.318,0,0,1,2.636,0v2.2h-.44a.44.44,0,0,0-.439.44v4.831h-.878v-4.831a.44.44,0,0,0-.44-.439h-.439Z" transform="translate(5.271)" fill="#2a4318"/>
    <path id="Trazado_27" data-name="Trazado 27" d="M461.922,223.207a1.318,1.318,0,1,0-1.318,1.317,1.318,1.318,0,0,0,1.318-1.317Zm-1.318.439a.439.439,0,1,1,.439-.439h0a.439.439,0,0,1-.439.439Z" fill="#2a4318"/>
    <path id="Trazado_28" data-name="Trazado 28" d="M458.408,226.72v2.636a.44.44,0,0,0,.439.439h.44v4.831a.439.439,0,0,0,.439.44h1.757a.44.44,0,0,0,.439-.44h0v-4.831h.439a.439.439,0,0,0,.439-.439h0V226.72a2.2,2.2,0,1,0-4.392,0Zm.878,0a1.318,1.318,0,0,1,2.636,0v2.2h-.44a.44.44,0,0,0-.439.44h0v4.831h-.878v-4.831a.44.44,0,0,0-.44-.44h-.439Z" fill="#2a4318"/>
  </g>
</svg>
