<svg xmlns="http://www.w3.org/2000/svg" width="68.163" height="66.435" viewBox="0 0 68.163 66.435">
  <g id="Grupo_2558" data-name="Grupo 2558" transform="translate(68.163 66.435) rotate(180)">
    <path id="Trazado_1263" data-name="Trazado 1263" d="M32.36,1.072a3.638,3.638,0,0,1,5.157,0L67.09,30.63a3.637,3.637,0,0,1,0,5.158L37.516,65.363a3.635,3.635,0,0,1-5.157,0l-3.378-3.377a3.656,3.656,0,0,1,.061-5.219L47.374,39.3H3.652A3.642,3.642,0,0,1,0,35.651V30.783a3.641,3.641,0,0,1,3.652-3.651H47.374L29.042,9.667a3.629,3.629,0,0,1-.061-5.217Z" transform="translate(0 0)" fill="#fff"/>
  </g>
</svg>
